<mxfile host="app.diagrams.net" agent="Mozilla/5.0 (Windows NT 10.0; Win64; x64) AppleWebKit/537.36 (KHTML, like Gecko) Chrome/132.0.0.0 Safari/537.36" version="26.0.16">
  <diagram id="R2lEEEUBdFMjLlhIrx00" name="Page-1">
    <mxGraphModel dx="2240" dy="1855" grid="1" gridSize="10" guides="1" tooltips="1" connect="1" arrows="1" fold="1" page="1" pageScale="1" pageWidth="850" pageHeight="1100" math="0" shadow="0" extFonts="Permanent Marker^https://fonts.googleapis.com/css?family=Permanent+Marker">
      <root>
        <mxCell id="0" />
        <mxCell id="1" parent="0" />
        <mxCell id="DHUrKLIns5piyOZiVPqF-1" value="&lt;span style=&quot;font-size: 24px;&quot;&gt;User&lt;/span&gt;" style="swimlane;childLayout=stackLayout;horizontal=1;startSize=50;horizontalStack=0;rounded=1;fontSize=14;fontStyle=0;strokeWidth=2;resizeParent=0;resizeLast=1;shadow=0;dashed=0;align=center;arcSize=4;whiteSpace=wrap;html=1;" parent="1" vertex="1">
          <mxGeometry x="-350" y="-170" width="200" height="220" as="geometry" />
        </mxCell>
        <mxCell id="DHUrKLIns5piyOZiVPqF-2" value="&lt;u&gt;&lt;font style=&quot;font-size: 23px;&quot;&gt;UserID&lt;/font&gt;&lt;/u&gt;&lt;div&gt;&lt;font style=&quot;font-size: 23px;&quot;&gt;Username&lt;/font&gt;&lt;/div&gt;&lt;div&gt;&lt;font style=&quot;font-size: 23px;&quot;&gt;Password&lt;/font&gt;&lt;/div&gt;&lt;div&gt;&lt;font style=&quot;font-size: 23px;&quot;&gt;Email&lt;/font&gt;&lt;/div&gt;&lt;div&gt;&lt;font style=&quot;font-size: 23px;&quot;&gt;Role&lt;/font&gt;&lt;/div&gt;" style="align=left;strokeColor=none;fillColor=none;spacingLeft=4;spacingRight=4;fontSize=12;verticalAlign=top;resizable=0;rotatable=0;part=1;html=1;whiteSpace=wrap;" parent="DHUrKLIns5piyOZiVPqF-1" vertex="1">
          <mxGeometry y="50" width="200" height="170" as="geometry" />
        </mxCell>
        <mxCell id="DHUrKLIns5piyOZiVPqF-3" value="&lt;font style=&quot;font-size: 17px;&quot;&gt;Manages&lt;/font&gt;" style="shape=rhombus;perimeter=rhombusPerimeter;whiteSpace=wrap;html=1;align=center;" parent="1" vertex="1">
          <mxGeometry x="-170" y="110" width="120" height="60" as="geometry" />
        </mxCell>
        <mxCell id="DHUrKLIns5piyOZiVPqF-4" value="&lt;font style=&quot;font-size: 25px;&quot;&gt;Offer&lt;/font&gt;" style="swimlane;childLayout=stackLayout;horizontal=1;startSize=50;horizontalStack=0;rounded=1;fontSize=14;fontStyle=0;strokeWidth=2;resizeParent=0;resizeLast=1;shadow=0;dashed=0;align=center;arcSize=4;whiteSpace=wrap;html=1;" parent="1" vertex="1">
          <mxGeometry x="200" y="150" width="160" height="270" as="geometry" />
        </mxCell>
        <mxCell id="DHUrKLIns5piyOZiVPqF-5" value="&lt;u&gt;Offer_ID&lt;/u&gt;&lt;div&gt;Candidate_ID&lt;/div&gt;&lt;div&gt;Approved By&lt;/div&gt;&lt;div&gt;Contract type&lt;/div&gt;&lt;div&gt;Position&lt;/div&gt;&lt;div&gt;Level&lt;/div&gt;&lt;div&gt;Department&lt;/div&gt;&lt;div&gt;Recruiter Owner&lt;/div&gt;&lt;div&gt;Interviewer&lt;/div&gt;&lt;div&gt;Contract Start From&lt;/div&gt;&lt;div&gt;Contract To&lt;/div&gt;&lt;div&gt;Basic Salary&lt;/div&gt;&lt;div&gt;Interviewer Notes&lt;/div&gt;&lt;div&gt;Status&lt;/div&gt;" style="align=left;strokeColor=none;fillColor=none;spacingLeft=4;spacingRight=4;fontSize=12;verticalAlign=top;resizable=0;rotatable=0;part=1;html=1;whiteSpace=wrap;" parent="DHUrKLIns5piyOZiVPqF-4" vertex="1">
          <mxGeometry y="50" width="160" height="220" as="geometry" />
        </mxCell>
        <mxCell id="DHUrKLIns5piyOZiVPqF-15" value="Candidate" style="swimlane;childLayout=stackLayout;horizontal=1;startSize=50;horizontalStack=0;rounded=1;fontSize=14;fontStyle=0;strokeWidth=2;resizeParent=0;resizeLast=1;shadow=0;dashed=0;align=center;arcSize=4;whiteSpace=wrap;html=1;" parent="1" vertex="1">
          <mxGeometry x="-290" y="350" width="160" height="140" as="geometry" />
        </mxCell>
        <mxCell id="DHUrKLIns5piyOZiVPqF-16" value="&lt;u&gt;Candidate_ID&lt;/u&gt;&lt;div&gt;Name&lt;/div&gt;&lt;div&gt;Email&lt;/div&gt;&lt;div&gt;Phone&lt;/div&gt;&lt;div&gt;Status&lt;/div&gt;&lt;div&gt;&lt;br&gt;&lt;/div&gt;" style="align=left;strokeColor=none;fillColor=none;spacingLeft=4;spacingRight=4;fontSize=12;verticalAlign=top;resizable=0;rotatable=0;part=1;html=1;whiteSpace=wrap;" parent="DHUrKLIns5piyOZiVPqF-15" vertex="1">
          <mxGeometry y="50" width="160" height="90" as="geometry" />
        </mxCell>
        <mxCell id="DHUrKLIns5piyOZiVPqF-28" value="Schedule" style="swimlane;childLayout=stackLayout;horizontal=1;startSize=50;horizontalStack=0;rounded=1;fontSize=24;fontStyle=0;strokeWidth=2;resizeParent=0;resizeLast=1;shadow=0;dashed=0;align=center;arcSize=4;whiteSpace=wrap;html=1;" parent="1" vertex="1">
          <mxGeometry x="170" y="-160" width="180" height="180" as="geometry" />
        </mxCell>
        <mxCell id="DHUrKLIns5piyOZiVPqF-29" value="&lt;u&gt;&lt;font style=&quot;font-size: 20px;&quot;&gt;ScheduleID&lt;/font&gt;&lt;/u&gt;&lt;div&gt;&lt;font style=&quot;font-size: 20px;&quot;&gt;Result&lt;br&gt;&lt;/font&gt;&lt;div&gt;&lt;font style=&quot;font-size: 20px;&quot;&gt;Master&lt;/font&gt;&lt;/div&gt;&lt;/div&gt;&lt;div&gt;&lt;font style=&quot;font-size: 20px;&quot;&gt;Time&lt;/font&gt;&lt;/div&gt;&lt;div&gt;&lt;br&gt;&lt;/div&gt;" style="align=left;strokeColor=none;fillColor=none;spacingLeft=4;spacingRight=4;fontSize=12;verticalAlign=top;resizable=0;rotatable=0;part=1;html=1;whiteSpace=wrap;" parent="DHUrKLIns5piyOZiVPqF-28" vertex="1">
          <mxGeometry y="50" width="180" height="130" as="geometry" />
        </mxCell>
        <mxCell id="DHUrKLIns5piyOZiVPqF-37" value="&lt;font style=&quot;font-size: 21px;&quot;&gt;Manages&lt;/font&gt;" style="shape=rhombus;perimeter=rhombusPerimeter;whiteSpace=wrap;html=1;align=center;fontSize=16;" parent="1" vertex="1">
          <mxGeometry x="-630" y="-60" width="170" height="100" as="geometry" />
        </mxCell>
        <mxCell id="DHUrKLIns5piyOZiVPqF-38" value="" style="fontSize=12;html=1;endArrow=ERmandOne;rounded=0;entryX=0;entryY=0.5;entryDx=0;entryDy=0;exitX=0.8;exitY=0.28;exitDx=0;exitDy=0;strokeWidth=2;exitPerimeter=0;" parent="1" source="DHUrKLIns5piyOZiVPqF-37" target="DHUrKLIns5piyOZiVPqF-2" edge="1">
          <mxGeometry width="100" height="100" relative="1" as="geometry">
            <mxPoint x="-120" y="640" as="sourcePoint" />
            <mxPoint x="-20" y="540" as="targetPoint" />
          </mxGeometry>
        </mxCell>
        <mxCell id="DHUrKLIns5piyOZiVPqF-39" value="Job" style="swimlane;childLayout=stackLayout;horizontal=1;startSize=50;horizontalStack=0;rounded=1;fontSize=26;fontStyle=0;strokeWidth=2;resizeParent=0;resizeLast=1;shadow=0;dashed=0;align=center;arcSize=4;whiteSpace=wrap;html=1;" parent="1" vertex="1">
          <mxGeometry x="-720" y="80" width="160" height="360" as="geometry" />
        </mxCell>
        <mxCell id="DHUrKLIns5piyOZiVPqF-40" value="&lt;u&gt;&lt;font style=&quot;font-size: 19px;&quot;&gt;JobID&lt;/font&gt;&lt;/u&gt;&lt;div&gt;&lt;font style=&quot;font-size: 19px;&quot;&gt;Title&lt;/font&gt;&lt;/div&gt;&lt;div&gt;&lt;font style=&quot;font-size: 19px;&quot;&gt;Required Skills&lt;/font&gt;&lt;/div&gt;&lt;div&gt;&lt;font style=&quot;font-size: 19px;&quot;&gt;Start Date&lt;/font&gt;&lt;/div&gt;&lt;div&gt;&lt;font style=&quot;font-size: 19px;&quot;&gt;End Date&lt;/font&gt;&lt;/div&gt;&lt;div&gt;&lt;font style=&quot;font-size: 19px;&quot;&gt;Salary From&lt;/font&gt;&lt;/div&gt;&lt;div&gt;&lt;font style=&quot;font-size: 19px;&quot;&gt;Salary To&lt;/font&gt;&lt;/div&gt;&lt;div&gt;&lt;font style=&quot;font-size: 19px;&quot;&gt;Benefit&lt;/font&gt;&lt;/div&gt;&lt;div&gt;&lt;font style=&quot;font-size: 19px;&quot;&gt;Working Address&lt;/font&gt;&lt;/div&gt;&lt;div&gt;&lt;font style=&quot;font-size: 19px;&quot;&gt;Level&lt;/font&gt;&lt;/div&gt;&lt;div&gt;&lt;font style=&quot;font-size: 19px;&quot;&gt;Description&lt;/font&gt;&lt;/div&gt;&lt;div&gt;&lt;font style=&quot;font-size: 19px;&quot;&gt;Status&lt;/font&gt;&lt;/div&gt;&lt;div&gt;&lt;font style=&quot;font-size: 19px;&quot;&gt;&lt;br&gt;&lt;/font&gt;&lt;/div&gt;&lt;div&gt;&lt;font style=&quot;font-size: 17px;&quot;&gt;&lt;br&gt;&lt;/font&gt;&lt;/div&gt;" style="align=left;strokeColor=none;fillColor=none;spacingLeft=4;spacingRight=4;fontSize=12;verticalAlign=top;resizable=0;rotatable=0;part=1;html=1;whiteSpace=wrap;" parent="DHUrKLIns5piyOZiVPqF-39" vertex="1">
          <mxGeometry y="50" width="160" height="310" as="geometry" />
        </mxCell>
        <mxCell id="CN3xRNO4bc0W_CZmTyxR-37" style="edgeStyle=orthogonalEdgeStyle;rounded=0;orthogonalLoop=1;jettySize=auto;html=1;exitX=0.5;exitY=1;exitDx=0;exitDy=0;" edge="1" parent="DHUrKLIns5piyOZiVPqF-39" source="DHUrKLIns5piyOZiVPqF-40" target="DHUrKLIns5piyOZiVPqF-40">
          <mxGeometry relative="1" as="geometry" />
        </mxCell>
        <mxCell id="CN3xRNO4bc0W_CZmTyxR-38" value="" style="shape=table;startSize=0;container=1;collapsible=1;childLayout=tableLayout;fixedRows=1;rowLines=0;fontStyle=0;align=center;resizeLast=1;strokeColor=none;fillColor=none;collapsible=0;" vertex="1" parent="DHUrKLIns5piyOZiVPqF-39">
          <mxGeometry y="360" width="160" as="geometry" />
        </mxCell>
        <mxCell id="CN3xRNO4bc0W_CZmTyxR-39" value="" style="shape=tableRow;horizontal=0;startSize=0;swimlaneHead=0;swimlaneBody=0;fillColor=none;collapsible=0;dropTarget=0;points=[[0,0.5],[1,0.5]];portConstraint=eastwest;top=0;left=0;right=0;bottom=0;" vertex="1" visible="0" parent="CN3xRNO4bc0W_CZmTyxR-38">
          <mxGeometry width="180" height="30" as="geometry" />
        </mxCell>
        <mxCell id="CN3xRNO4bc0W_CZmTyxR-40" value="FK" style="shape=partialRectangle;connectable=0;fillColor=none;top=0;left=0;bottom=0;right=0;fontStyle=0;overflow=hidden;whiteSpace=wrap;html=1;" vertex="1" parent="CN3xRNO4bc0W_CZmTyxR-39">
          <mxGeometry width="30" height="30" as="geometry">
            <mxRectangle width="30" height="30" as="alternateBounds" />
          </mxGeometry>
        </mxCell>
        <mxCell id="CN3xRNO4bc0W_CZmTyxR-41" value="UniqueID" style="shape=partialRectangle;connectable=0;fillColor=none;top=0;left=0;bottom=0;right=0;align=left;spacingLeft=6;fontStyle=0;overflow=hidden;whiteSpace=wrap;html=1;" vertex="1" parent="CN3xRNO4bc0W_CZmTyxR-39">
          <mxGeometry x="30" width="150" height="30" as="geometry">
            <mxRectangle width="150" height="30" as="alternateBounds" />
          </mxGeometry>
        </mxCell>
        <mxCell id="DHUrKLIns5piyOZiVPqF-42" value="" style="fontSize=13;html=1;endArrow=ERzeroToMany;endFill=1;rounded=0;strokeWidth=2;" parent="1" source="DHUrKLIns5piyOZiVPqF-37" edge="1">
          <mxGeometry width="100" height="100" relative="1" as="geometry">
            <mxPoint x="-460" y="30" as="sourcePoint" />
            <mxPoint x="-640" y="78" as="targetPoint" />
            <Array as="points">
              <mxPoint x="-640" y="40" />
            </Array>
          </mxGeometry>
        </mxCell>
        <mxCell id="CN3xRNO4bc0W_CZmTyxR-45" value="Manages" style="shape=rhombus;perimeter=rhombusPerimeter;whiteSpace=wrap;html=1;align=center;fontSize=19;" vertex="1" parent="1">
          <mxGeometry x="-370" y="140" width="120" height="70" as="geometry" />
        </mxCell>
        <mxCell id="CN3xRNO4bc0W_CZmTyxR-49" value="" style="edgeStyle=orthogonalEdgeStyle;fontSize=12;html=1;endArrow=ERzeroToMany;endFill=1;rounded=0;" edge="1" parent="1" target="DHUrKLIns5piyOZiVPqF-15">
          <mxGeometry width="100" height="100" relative="1" as="geometry">
            <mxPoint x="-310" y="210" as="sourcePoint" />
            <mxPoint x="140" y="200" as="targetPoint" />
          </mxGeometry>
        </mxCell>
        <mxCell id="CN3xRNO4bc0W_CZmTyxR-55" value="" style="edgeStyle=orthogonalEdgeStyle;fontSize=12;html=1;endArrow=ERmandOne;rounded=0;exitX=0.5;exitY=0;exitDx=0;exitDy=0;entryX=0.204;entryY=1.018;entryDx=0;entryDy=0;entryPerimeter=0;" edge="1" parent="1" source="CN3xRNO4bc0W_CZmTyxR-45" target="DHUrKLIns5piyOZiVPqF-2">
          <mxGeometry width="100" height="100" relative="1" as="geometry">
            <mxPoint x="40" y="300" as="sourcePoint" />
            <mxPoint x="140" y="200" as="targetPoint" />
          </mxGeometry>
        </mxCell>
        <mxCell id="CN3xRNO4bc0W_CZmTyxR-57" value="&lt;font style=&quot;font-size: 18px;&quot;&gt;manages&lt;/font&gt;" style="shape=rhombus;perimeter=rhombusPerimeter;whiteSpace=wrap;html=1;align=center;" vertex="1" parent="1">
          <mxGeometry x="-70" y="-60" width="120" height="60" as="geometry" />
        </mxCell>
        <mxCell id="CN3xRNO4bc0W_CZmTyxR-58" value="interviews" style="shape=rhombus;perimeter=rhombusPerimeter;whiteSpace=wrap;html=1;align=center;fontSize=16;" vertex="1" parent="1">
          <mxGeometry x="-50" y="-160" width="120" height="60" as="geometry" />
        </mxCell>
        <mxCell id="CN3xRNO4bc0W_CZmTyxR-60" value="" style="edgeStyle=orthogonalEdgeStyle;fontSize=12;html=1;endArrow=ERmandOne;rounded=0;entryX=0.5;entryY=1;entryDx=0;entryDy=0;exitX=0;exitY=0.5;exitDx=0;exitDy=0;" edge="1" parent="1" source="DHUrKLIns5piyOZiVPqF-3" target="DHUrKLIns5piyOZiVPqF-2">
          <mxGeometry width="100" height="100" relative="1" as="geometry">
            <mxPoint x="50" y="120" as="sourcePoint" />
            <mxPoint x="150" y="20" as="targetPoint" />
          </mxGeometry>
        </mxCell>
        <mxCell id="CN3xRNO4bc0W_CZmTyxR-62" value="" style="edgeStyle=orthogonalEdgeStyle;fontSize=12;html=1;endArrow=ERzeroToMany;endFill=1;rounded=0;entryX=0.992;entryY=0.679;entryDx=0;entryDy=0;entryPerimeter=0;" edge="1" parent="1" target="DHUrKLIns5piyOZiVPqF-2">
          <mxGeometry width="100" height="100" relative="1" as="geometry">
            <mxPoint x="-90" y="120" as="sourcePoint" />
            <mxPoint x="19.5" y="270" as="targetPoint" />
            <Array as="points">
              <mxPoint x="-90" y="-5" />
            </Array>
          </mxGeometry>
        </mxCell>
        <mxCell id="CN3xRNO4bc0W_CZmTyxR-63" value="" style="fontSize=12;html=1;endArrow=ERmandOne;rounded=0;entryX=1;entryY=0.5;entryDx=0;entryDy=0;" edge="1" parent="1" target="DHUrKLIns5piyOZiVPqF-2">
          <mxGeometry width="100" height="100" relative="1" as="geometry">
            <mxPoint x="-60" y="-25" as="sourcePoint" />
            <mxPoint x="-220" y="60" as="targetPoint" />
          </mxGeometry>
        </mxCell>
        <mxCell id="CN3xRNO4bc0W_CZmTyxR-64" value="" style="fontSize=12;html=1;endArrow=ERzeroToMany;endFill=1;rounded=0;exitX=1;exitY=0.5;exitDx=0;exitDy=0;entryX=-0.005;entryY=0.6;entryDx=0;entryDy=0;entryPerimeter=0;" edge="1" parent="1" source="CN3xRNO4bc0W_CZmTyxR-57" target="DHUrKLIns5piyOZiVPqF-29">
          <mxGeometry width="100" height="100" relative="1" as="geometry">
            <mxPoint x="-80" y="130" as="sourcePoint" />
            <mxPoint x="150" y="-30" as="targetPoint" />
          </mxGeometry>
        </mxCell>
        <mxCell id="CN3xRNO4bc0W_CZmTyxR-65" value="" style="fontSize=12;html=1;endArrow=ERzeroToMany;endFill=1;rounded=0;entryX=-0.021;entryY=0.157;entryDx=0;entryDy=0;entryPerimeter=0;exitX=1;exitY=0.5;exitDx=0;exitDy=0;" edge="1" parent="1" source="CN3xRNO4bc0W_CZmTyxR-58" target="DHUrKLIns5piyOZiVPqF-28">
          <mxGeometry width="100" height="100" relative="1" as="geometry">
            <mxPoint x="-70" y="9.079999999999998" as="sourcePoint" />
            <mxPoint x="-131" y="-108.92" as="targetPoint" />
          </mxGeometry>
        </mxCell>
        <mxCell id="CN3xRNO4bc0W_CZmTyxR-66" value="" style="edgeStyle=entityRelationEdgeStyle;fontSize=12;html=1;endArrow=ERoneToMany;rounded=0;entryX=1;entryY=0.136;entryDx=0;entryDy=0;entryPerimeter=0;exitX=0.058;exitY=0.433;exitDx=0;exitDy=0;exitPerimeter=0;" edge="1" parent="1" source="CN3xRNO4bc0W_CZmTyxR-58" target="DHUrKLIns5piyOZiVPqF-1">
          <mxGeometry width="100" height="100" relative="1" as="geometry">
            <mxPoint x="-110" y="130" as="sourcePoint" />
            <mxPoint x="-10" y="30" as="targetPoint" />
          </mxGeometry>
        </mxCell>
        <mxCell id="CN3xRNO4bc0W_CZmTyxR-67" value="Relationship" style="shape=rhombus;perimeter=rhombusPerimeter;whiteSpace=wrap;html=1;align=center;" vertex="1" parent="1">
          <mxGeometry x="-485" y="390" width="120" height="60" as="geometry" />
        </mxCell>
      </root>
    </mxGraphModel>
  </diagram>
</mxfile>
